HIERARCHY
ROOT hip
{
	OFFSET 0.000000 0.000000 0.000000 
	CHANNELS 6 Xposition Yposition Zposition Xrotation Zrotation Yrotation
	JOINT abdomen
	{
		OFFSET 0.000000 3.402643 0.000000 
		CHANNELS 3 Xrotation Zrotation Yrotation
		JOINT chest
		{
			OFFSET 0.000000 8.438565 -0.680529 
			CHANNELS 3 Xrotation Zrotation Yrotation
			JOINT neck
			{
				OFFSET 0.000000 10.207942 -0.272212 
				CHANNELS 3 Xrotation Zrotation Yrotation
				JOINT head
				{
					OFFSET 0.000000 3.130431 0.000000 
					CHANNELS 3 Xrotation Zrotation Yrotation
					End Site
					{
						OFFSET 0.000000 3.130435 0.000000 
					}
				}
			}
			JOINT lCollar
			{
				OFFSET 3.470700 6.669187 -0.816635 
				CHANNELS 3 Yrotation Zrotation Xrotation
				JOINT lShldr
				{
					OFFSET 3.198488 0.000000 0.000000 
					CHANNELS 3 Zrotation Yrotation Xrotation
					JOINT lForeArm
					{
						OFFSET 10.139888 0.000000 0.000000 
						CHANNELS 3 Yrotation Zrotation Xrotation
						JOINT lHand
						{
							OFFSET 8.370511 0.000000 0.000000 
							CHANNELS 3 Zrotation Yrotation Xrotation
							End Site
							{
								OFFSET 4.083176 0.000000 0.000000 
							}
						}
					}
				}
			}
			JOINT rCollar
			{
				OFFSET -3.470700 6.669187 -0.816635 
				CHANNELS 3 Yrotation Zrotation Xrotation
				JOINT rShldr
				{
					OFFSET -3.198488 0.000000 0.000000 
					CHANNELS 3 Zrotation Yrotation Xrotation
					JOINT rForeArm
					{
						OFFSET -10.139888 0.000000 0.000000 
						CHANNELS 3 Yrotation Zrotation Xrotation
						JOINT rHand
						{
							OFFSET -8.370511 0.000000 0.000000 
							CHANNELS 3 Zrotation Yrotation Xrotation
							End Site
							{
								OFFSET -4.083176 0.000000 0.000000 
							}
						}
					}
				}
			}
		}
	}
	JOINT lThigh
	{
		OFFSET 5.308129 -1.633274 1.361059 
		CHANNELS 3 Xrotation Zrotation Yrotation
		JOINT lShin
		{
			OFFSET -2.041588 -20.007561 0.000000 
			CHANNELS 3 Xrotation Zrotation Yrotation
			JOINT lFoot
			{
				OFFSET 0.000000 -19.190928 -1.224953 
				CHANNELS 3 Xrotation Yrotation Zrotation
				End Site
				{
					OFFSET 0.000000 -2.449906 4.627600 
				}
			}
		}
	}
	JOINT rThigh
	{
		OFFSET -5.308129 -1.633274 1.361059 
		CHANNELS 3 Xrotation Zrotation Yrotation
		JOINT rShin
		{
			OFFSET 2.041588 -20.007561 0.000000 
			CHANNELS 3 Xrotation Zrotation Yrotation
			JOINT rFoot
			{
				OFFSET 0.000000 -19.190928 -1.224953 
				CHANNELS 3 Xrotation Yrotation Zrotation
				End Site
				{
					OFFSET 0.000000 -2.449906 4.627600 
				}
			}
		}
	}
}
MOTION
Frames: 11
Frame Time: 0.016667
0.598205 53.183201 -1.391536 -10.921851 1.218444 3.487200 25.122498 2.009732 -0.066588 3.588565 1.249756 -1.679844 -9.073934 0.892138 -0.174476 6.818385 -2.860768 1.133838 -19.134392 -10.658775 -0.563717 -63.786045 12.600685 -23.697535 -23.182186 -5.000000 28.424490 -20.629057 4.214967 4.670354 16.582975 12.219524 -0.650354 61.168209 -9.887997 -19.964190 25.358028 5.000000 16.022871 14.632910 -25.474428 7.455330 16.930468 13.719094 4.594570 4.828846 -4.947673 -0.605133 -9.239788 3.512387 -6.977175 22.875628 -7.723498 -10.451424 -2.337209 2.784298 -0.078745 -4.910410 -13.329714 6.707239 
0.599410 53.184479 -1.393946 -10.931592 1.208658 3.516490 25.112696 2.019728 -0.062338 3.588758 1.239992 -1.670079 -8.986013 0.882482 -0.173016 6.882522 -2.851105 1.026550 -19.173357 -10.649018 -0.563211 -63.749004 12.659350 -23.723181 -23.113489 -5.000000 28.414762 -20.633163 4.218495 4.815396 16.583317 12.248781 -0.651870 61.143375 -9.925604 -20.024319 25.324636 5.000000 16.080532 14.642848 -25.509802 7.429733 16.898294 13.726783 4.585218 4.855176 -4.935114 -0.626721 -9.278414 3.509156 -7.021524 22.895826 -7.723654 -10.431446 -2.361005 2.828527 -0.071958 -4.835460 -13.396402 6.652194 
0.599367 53.185081 -1.394530 -10.931580 1.198873 3.545779 25.113014 2.028467 -0.057920 3.589161 1.230232 -1.650551 -8.907889 0.882482 -0.173016 6.946779 -2.831667 0.918778 -19.212322 -10.639260 -0.562705 -63.728813 12.697130 -23.748806 -23.058495 -5.000000 28.399551 -20.620670 4.200975 4.937300 16.573891 12.278039 -0.653387 61.138649 -9.969803 -20.089788 25.296711 5.000000 16.137060 14.655450 -25.526878 7.410565 16.880278 13.748179 4.558676 4.876118 -4.928501 -0.608636 -9.276610 3.535367 -7.009687 22.909092 -7.714765 -10.418674 -2.381891 2.848758 -0.083754 -4.805665 -13.471932 6.622241 
0.598076 53.185005 -1.393288 -10.941542 1.189101 3.565306 25.113495 2.024338 -0.048490 3.570237 1.220477 -1.631025 -8.829763 0.882482 -0.173016 7.011102 -2.802453 0.811487 -19.241518 -10.629503 -0.562200 -63.705753 12.748121 -23.757233 -23.030191 -5.000000 28.380043 -20.589352 4.183918 5.038910 16.574120 12.297543 -0.654397 61.140896 -10.023078 -20.139124 25.289055 5.000000 16.199049 14.672007 -25.516525 7.396844 16.890078 13.767241 4.543413 4.879256 -4.939176 -0.608880 -9.269545 3.497132 -7.016622 22.908854 -7.685310 -10.400524 -2.379333 2.826884 -0.053567 -4.770308 -13.525240 6.624955 
0.596783 53.184940 -1.392046 -10.951715 1.179342 3.575069 25.113968 2.029354 -0.035631 3.561072 1.210721 -1.611499 -8.761284 0.893599 -0.164822 7.085080 -2.773228 0.703719 -19.268892 -10.613216 -0.552132 -63.694279 12.790751 -23.780657 -23.004301 -5.000000 28.351837 -20.569382 4.155116 5.134157 16.562651 12.329582 -0.646769 61.145252 -10.072496 -20.203257 25.285650 5.000000 16.250135 14.687248 -25.515305 7.384110 16.888111 13.784926 4.527675 4.879444 -4.939363 -0.589382 -9.288109 3.515778 -6.996829 22.933203 -7.674898 -10.388160 -2.389692 2.855938 -0.065085 -4.762773 -13.538898 6.620299 
0.595670 53.184341 -1.387953 -10.950912 1.179291 3.614123 25.103886 2.033280 -0.044566 3.561442 1.191193 -1.621265 -8.692952 0.903255 -0.166282 7.146039 -2.773257 0.654948 -19.268799 -10.603465 -0.551628 -63.678905 12.824759 -23.784798 -22.989658 -5.000000 28.326914 -20.505079 4.089942 5.203339 16.582409 12.349087 -0.647780 61.144714 -10.099310 -20.245216 25.257893 5.000000 16.289865 14.705513 -25.511148 7.387445 16.884365 13.789295 4.517080 4.886230 -4.945850 -0.619598 -9.284551 3.560823 -7.008124 22.941399 -7.654681 -10.412694 -2.398734 2.836556 -0.045399 -4.751737 -13.540099 6.641952 
0.594556 53.183735 -1.383862 -10.950308 1.179253 3.643413 25.084351 2.033340 -0.044660 3.552046 1.171665 -1.631032 -8.634416 0.922566 -0.169204 7.197232 -2.773283 0.606177 -19.268702 -10.593713 -0.551124 -63.665955 12.854347 -23.803951 -22.970169 -5.000000 28.321878 -20.440084 4.033716 5.268225 16.602163 12.368590 -0.648791 61.151409 -10.126607 -20.274073 25.239618 5.000000 16.328255 14.733199 -25.517399 7.383350 16.893490 13.809003 4.492099 4.885484 -4.946775 -0.609874 -9.316772 3.527963 -6.990695 22.959690 -7.635331 -10.437468 -2.409451 2.826970 -0.055420 -4.768803 -13.546047 6.647620 
0.592416 53.183140 -1.378289 -10.959470 1.179215 3.672704 25.074589 2.024196 -0.048090 3.552429 1.161905 -1.621269 -8.585644 0.941878 -0.172125 7.267677 -2.753772 0.566691 -19.270229 -10.570986 -0.559179 -63.651051 12.879622 -23.812382 -22.962021 -5.000000 28.289114 -20.378178 3.952351 5.322306 16.612270 12.397847 -0.650307 61.149147 -10.148743 -20.307634 25.230825 5.000000 16.365303 14.759171 -25.517418 7.362208 16.903458 13.828129 4.496809 4.888429 -4.957256 -0.629618 -9.339655 3.473523 -7.027343 22.989237 -7.615400 -10.481917 -2.419295 2.818550 -0.055705 -4.773149 -13.537048 6.662821 
0.589250 53.182537 -1.371233 -10.968408 1.188947 3.682468 25.064735 1.993797 -0.050314 3.562194 1.161905 -1.621269 -8.546611 0.951533 -0.173585 7.347862 -2.734259 0.527675 -19.279898 -10.561232 -0.558675 -63.632240 12.896253 -23.803701 -22.971701 -5.000000 28.235050 -20.307884 3.863181 5.357914 16.612497 12.417352 -0.651318 61.147236 -10.162333 -20.345901 25.212090 5.000000 16.437395 14.793736 -25.497074 7.310213 16.911892 13.817651 4.475274 4.886030 -4.946049 -0.619604 -9.360970 3.451363 -7.016293 23.041506 -7.616770 -10.502044 -2.450478 2.829345 -0.077528 -4.821472 -13.515128 6.667374 
0.586084 53.181931 -1.364177 -10.976507 1.208412 3.702201 25.045057 1.975768 -0.057753 3.562378 1.152141 -1.611503 -8.507607 0.970845 -0.176507 7.428019 -2.714745 0.488658 -19.287943 -10.564456 -0.549613 -63.604252 12.916819 -23.795015 -22.978964 -5.000000 28.189678 -20.248260 3.765736 5.396088 16.614786 12.434062 -0.661466 61.154305 -10.181081 -20.381186 25.203039 5.000000 16.491297 14.822474 -25.488331 7.263516 16.932165 13.808567 4.464199 4.881270 -4.950954 -0.609157 -9.398114 3.475361 -7.036819 23.047441 -7.605659 -10.559294 -2.457470 2.797839 -0.067095 -4.858996 -13.514656 6.684938 
0.582236 53.180721 -1.355296 -10.995420 1.208371 3.731491 25.035463 1.944673 -0.059681 3.571762 1.161901 -1.621267 -8.468606 0.990156 -0.179428 7.485980 -2.734271 0.498412 -19.278084 -10.554704 -0.549109 -63.610619 12.921064 -23.824965 -22.987875 -5.000000 28.189960 -20.140623 3.668361 5.393767 16.642134 12.446606 -0.652834 61.167137 -10.187050 -20.399694 25.227207 5.000000 16.496481 14.826973 -25.485832 7.250793 16.948019 13.835598 4.431910 4.873306 -4.945259 -0.599306 -9.431040 3.420784 -7.041193 23.113768 -7.597381 -10.586320 -2.483597 2.813859 -0.069519 -4.856369 -13.488755 6.674452 
